<?xml version="1.0" encoding="UTF-8"?>
<svg width="32px" height="32px" viewBox="0 0 32 32" version="1.1" xmlns="http://www.w3.org/2000/svg" xmlns:xlink="http://www.w3.org/1999/xlink">
    <!-- Generator: sketchtool 64 (101010) - https://sketch.com -->
    <title>1658AD97-8F7B-4FA5-9DD8-ADF7F4AA9359</title>
    <desc>Created with sketchtool.</desc>
    <defs>
        <circle id="path-1" cx="16" cy="16" r="16"></circle>
    </defs>
    <g id="Home-Dashboard-(Desktop)" stroke="none" stroke-width="1" fill="none" fill-rule="evenodd">
        <g id="Dashboard-A" transform="translate(-1350.000000, -95.000000)">
            <g id="Top-Section" transform="translate(40.000000, 95.000000)">
                <g id="User-Options" transform="translate(1310.000000, 0.000000)">
                    <g id="Icons/User/Filled">
                        <mask id="mask-2" fill="white">
                            <use xlink:href="#path-1"></use>
                        </mask>
                        <circle stroke="#202020" stroke-width="1.6" cx="16" cy="16" r="15.2"></circle>
                        <path d="M16,21.5 C19.7265625,21.5 22.75,18.4765625 22.75,14.75 C22.75,11.0234375 19.7265625,8 16,8 C12.2734375,8 9.25,11.0234375 9.25,14.75 C9.25,18.4765625 12.2734375,21.5 16,21.5 Z M22,23 L19.4171875,23 C18.3765625,23.478125 17.21875,23.75 16,23.75 C14.78125,23.75 13.628125,23.478125 12.5828125,23 L10,23 C6.6859375,23 4,25.6859375 4,29 L4,29.75 C4,30.9921875 5.0078125,32 6.25,32 L25.75,32 C26.9921875,32 28,30.9921875 28,29.75 L28,29 C28,25.6859375 25.3140625,23 22,23 Z" id="user_alt" fill="#202020" fill-rule="nonzero" mask="url(#mask-2)"></path>
                    </g>
                </g>
            </g>
        </g>
    </g>
</svg>