<?xml version="1.0" encoding="UTF-8"?>
<svg width="14px" height="16px" viewBox="0 0 14 16" version="1.1" xmlns="http://www.w3.org/2000/svg" xmlns:xlink="http://www.w3.org/1999/xlink">
    <!-- Generator: sketchtool 64 (101010) - https://sketch.com -->
    <title>78948323-3BE5-4843-BB0B-243EF6F30FC9</title>
    <desc>Created with sketchtool.</desc>
    <g id="Home-Dashboard-(Desktop)" stroke="none" stroke-width="1" fill="none" fill-rule="evenodd">
        <g id="Dashboard-A" transform="translate(-423.000000, -103.000000)" fill="#575757" fill-rule="nonzero">
            <g id="Top-Section" transform="translate(40.000000, 95.000000)">
                <g id="Main-Navigation-Links" transform="translate(118.000000, 8.000000)">
                    <g id="Reservations" transform="translate(265.000000, 0.000000)">
                        <path d="M13.6250001,5 C13.8312501,5 14,4.83125002 14,4.62500002 L14,3.37500002 C14,3.16875002 13.8312501,3 13.6250001,3 L13,3 L13,1.5 C13,0.671875003 12.3281251,0 11.5,0 L1.5,0 C0.671875003,0 0,0.671875003 0,1.5 L0,14.5 C0,15.3281251 0.671875003,16 1.5,16 L11.5,16 C12.3281251,16 13,15.3281251 13,14.5 L13,13 L13.6250001,13 C13.8312501,13 14,12.8312501 14,12.6250001 L14,11.3750001 C14,11.1687501 13.8312501,11 13.6250001,11 L13,11 L13,9 L13.6250001,9 C13.8312501,9 14,8.83125004 14,8.62500004 L14,7.37500004 C14,7.16875004 13.8312501,7 13.6250001,7 L13,7 L13,5 L13.6250001,5 Z M6.50000002,4.00000002 C7.60312504,4.00000002 8.50000002,4.89687502 8.50000002,6.00000002 C8.50000002,7.10312504 7.60312504,8.00000002 6.50000002,8.00000002 C5.39687503,8.00000002 4.50000002,7.10312504 4.50000002,6.00000002 C4.50000002,4.89687502 5.39687503,4.00000002 6.50000002,4.00000002 Z M10,11.4000001 C10,11.7312501 9.68750005,12 9.30000005,12 L3.70000002,12 C3.31250002,12 3.00000001,11.7312501 3.00000001,11.4000001 L3.00000001,10.8000001 C3.00000001,9.80625005 3.94062502,9.00000005 5.10000003,9.00000005 L5.25625003,9.00000005 C5.64062503,9.15937505 6.05937503,9.25000005 6.50000001,9.25000005 C6.94062503,9.25000005 7.36250004,9.15937505 7.74375004,9.00000005 L7.90000004,9.00000005 C9.05937505,9.00000005 10,9.80625005 10,10.8000001 L10,11.4000001 Z" id="address-book"></path>
                    </g>
                </g>
            </g>
        </g>
    </g>
</svg>