<?xml version="1.0" encoding="UTF-8"?>
<svg width="12px" height="16px" viewBox="0 0 12 16" version="1.1" xmlns="http://www.w3.org/2000/svg" xmlns:xlink="http://www.w3.org/1999/xlink">
    <!-- Generator: sketchtool 64 (101010) - https://sketch.com -->
    <title>341973E2-3ACC-4E11-8302-85F044D41359</title>
    <desc>Created with sketchtool.</desc>
    <g id="Home-Dashboard-(Desktop)" stroke="none" stroke-width="1" fill="none" fill-rule="evenodd">
        <g id="Dashboard-A" transform="translate(-565.000000, -103.000000)" fill="#575757" fill-rule="nonzero">
            <g id="Top-Section" transform="translate(40.000000, 95.000000)">
                <g id="Main-Navigation-Links" transform="translate(118.000000, 8.000000)">
                    <g id="Clubs" transform="translate(407.000000, 0.000000)">
                        <path d="M3.03503051,11.3322138 C2.7634708,11.0606567 2.90503185,11.1372177 2.25003859,10.9619087 C1.95285414,10.8822228 1.69160683,10.7291008 1.45535926,10.545667 L0.0375613522,14.0218478 C-0.0996247362,14.3584036 0.156622627,14.7240213 0.519743891,14.7102716 L2.16628945,14.6474603 L3.29877779,15.8436865 C3.54877522,16.1074313 3.98752071,16.0252454 4.1247068,15.6886896 L5.75125256,11.700644 C5.41250605,11.8893902 5.03657241,12.000013 4.64782641,12.000013 C4.03845768,12.000013 3.46596357,11.7628303 3.03503051,11.3322138 Z M11.9624386,14.0218478 L10.5446407,10.545667 C10.3083932,10.7294133 10.0471459,10.8822228 9.74996141,10.9619087 C9.09153069,11.1381552 9.2359042,11.0612817 8.96496949,11.3322138 C8.53403643,11.7628303 7.96122982,12.000013 7.35186109,12.000013 C6.96311509,12.000013 6.58718146,11.8890777 6.24843494,11.700644 L7.87498071,15.6886896 C8.0121668,16.0252454 8.45122478,16.1074313 8.70090971,15.8436865 L9.83371055,14.6474603 L11.4802561,14.7102716 C11.8433774,14.7240213 12.0996247,14.3580911 11.9624386,14.0218478 L11.9624386,14.0218478 Z M8.21872717,10.6250404 C8.69622226,10.1391126 8.75090919,10.1809868 9.4309022,9.99567795 C9.86496023,9.87724281 10.2043317,9.53193718 10.3205805,9.09007098 C10.5543281,8.20258865 10.4937038,8.30977402 11.1315097,7.66041195 C11.4493189,7.33698089 11.5733802,6.86542778 11.4571313,6.42356157 C11.2236962,5.53670423 11.2233838,5.66045177 11.4571313,4.77265694 C11.5733802,4.33079074 11.4493189,3.85923763 11.1315097,3.53580657 C10.4937038,2.8864445 10.5543281,2.99331737 10.3205805,2.10614754 C10.2043317,1.66428134 9.86496023,1.31897571 9.4309022,1.20054057 C8.55966116,0.962732804 8.66466008,1.02491907 8.02622915,0.375244501 C7.70841992,0.051813441 7.24498719,-0.0747465391 6.81092916,0.0436886027 C5.94000062,0.281183874 6.06156187,0.281496368 5.18907084,0.0436886027 C4.75501281,-0.0747465391 4.29158008,0.0515009472 3.97377085,0.375244501 C3.33596491,1.02460657 3.44096383,0.962732804 2.5694103,1.20054057 C2.13535227,1.31897571 1.79598076,1.66428134 1.67973195,2.10614754 C1.44629686,2.99331737 1.50660874,2.8864445 0.868802799,3.53580657 C0.550993569,3.85923763 0.426619849,4.33079074 0.543181149,4.77265694 C0.776616248,5.6588893 0.776928744,5.53514176 0.543181149,6.42324908 C0.426932346,6.86511528 0.550993569,7.33666839 0.868802799,7.66041195 C1.50660874,8.30977402 1.44598436,8.20258865 1.67973195,9.09007098 C1.79598076,9.53193718 2.13535227,9.87724281 2.5694103,9.99567795 C3.2687781,10.1862992 3.32096507,10.1562998 3.78127283,10.6250404 C4.19470608,11.0459695 4.83876195,11.1212805 5.33563184,10.8069118 C5.74123187,10.5494186 6.25908062,10.5494186 6.66468066,10.8069118 C7.16123805,11.1212805 7.80529392,11.0459695 8.21872717,10.6250404 Z M3.05190534,5.49889248 C3.05190534,3.84173798 4.37189175,2.49832723 6,2.49832723 C7.62810825,2.49832723 8.94809466,3.84173798 8.94809466,5.49889248 C8.94809466,7.15604699 7.62810825,8.49945774 6,8.49945774 C4.37189175,8.49945774 3.05190534,7.15604699 3.05190534,5.49889248 L3.05190534,5.49889248 Z" id="award"></path>
                    </g>
                </g>
            </g>
        </g>
    </g>
</svg>