<?xml version="1.0" encoding="UTF-8"?>
<svg width="14px" height="16px" viewBox="0 0 14 16" version="1.1" xmlns="http://www.w3.org/2000/svg" xmlns:xlink="http://www.w3.org/1999/xlink">
    <!-- Generator: sketchtool 64 (101010) - https://sketch.com -->
    <title>54B0915F-D748-421C-8039-1D8206BE5036</title>
    <desc>Created with sketchtool.</desc>
    <g id="Home-Dashboard-(Desktop)" stroke="none" stroke-width="1" fill="none" fill-rule="evenodd">
        <g id="Dashboard-A" transform="translate(-799.000000, -103.000000)" fill="#575757" fill-rule="nonzero">
            <g id="Top-Section" transform="translate(40.000000, 95.000000)">
                <g id="Main-Navigation-Links" transform="translate(118.000000, 8.000000)">
                    <g id="Events" transform="translate(641.000000, 0.000000)">
                        <path d="M12.5,2 L11,2 L11,0.375000002 C11,0.167906251 10.8320938,0 10.6250001,0 L9.37500005,0 C9.1679063,0 9,0.167906251 9,0.375000002 L9,2 L5,2 L5,0.375000002 C5,0.167906251 4.83209377,0 4.62500002,0 L3.37500002,0 C3.16790627,0 3,0.167906251 3,0.375000002 L3,2 L1.5,2 C0.671562503,2 0,2.67156251 0,3.5 L0,14.5 C0,15.3284376 0.671562503,16 1.5,16 L12.5,16 C13.3284376,16 14,15.3284376 14,14.5 L14,3.5 C14,2.67156251 13.3284376,2 12.5,2 Z M12.3125001,14.5 L1.68750001,14.5 C1.58394662,14.5 1.50000001,14.4160535 1.50000001,14.3125001 L1.50000001,5.00000003 L12.5,5.00000003 L12.5,14.3125001 C12.5,14.4160535 12.4160535,14.5 12.3125001,14.5 Z M10.6609688,8.22968754 L6.21381253,12.6412188 C6.06678128,12.7870626 5.82934378,12.7861251 5.68346878,12.6390938 L3.33687502,10.2735001 C3.19103127,10.1264688 3.19196877,9.8890313 3.33900002,9.7431563 L4.04896877,9.0389063 C4.19600002,8.89306254 4.43343752,8.89400004 4.57928127,9.04106255 L5.95753128,10.4304688 L9.4285313,6.98731253 C9.57556255,6.84146878 9.81300005,6.84240628 9.95887505,6.98943753 L10.6631251,7.69937504 C10.8089688,7.84640629 10.8080001,8.08384379 10.6609688,8.22968754 Z" id="calendar-check"></path>
                    </g>
                </g>
            </g>
        </g>
    </g>
</svg>