<?xml version="1.0" encoding="UTF-8"?>
<svg width="21px" height="16px" viewBox="0 0 21 16" version="1.1" xmlns="http://www.w3.org/2000/svg" xmlns:xlink="http://www.w3.org/1999/xlink">
    <!-- Generator: sketchtool 64 (101010) - https://sketch.com -->
    <title>D0EC6FA6-1EA7-496A-B483-328C19761546</title>
    <desc>Created with sketchtool.</desc>
    <g id="Home-Dashboard-(Desktop)" stroke="none" stroke-width="1" fill="none" fill-rule="evenodd">
        <g id="Dashboard-A" transform="translate(-158.000000, -103.000000)" fill="currentColor" fill-rule="nonzero">
            <g id="Top-Section" transform="translate(40.000000, 95.000000)">
                <g id="Main-Navigation-Links" transform="translate(118.000000, 8.000000)">
                    <g id="Home">
                        <path d="M17.7913273,10.0203284 L17.7913273,15.142187 C17.7913273,15.6175584 17.4011832,16 16.9162377,16 L12.6866378,16 C12.4459882,16 12.249093,15.8069921 12.249093,15.5710935 L12.249093,11.567966 C12.249093,11.3320675 12.0521978,11.1390595 11.8115482,11.1390595 L9.18627927,11.1390595 C8.94562962,11.1390595 8.74873445,11.3320675 8.74873445,11.567966 L8.74873445,15.5710935 C8.74873445,15.8069921 8.55183929,16 8.31118964,16 L4.08158975,16 C3.59664424,16 3.20650011,15.6175584 3.20650011,15.142187 L3.20650011,10.0203284 C3.20650011,9.89165643 3.26483942,9.77013292 3.36693321,9.68792583 L10.221802,4.15503183 C10.3822351,4.02635988 10.6155923,4.02635988 10.7796716,4.15503183 L17.6345404,9.68792583 C17.732988,9.77013292 17.7913273,9.89165643 17.7913273,10.0203284 Z M20.8395562,7.84362783 L17.7913273,5.38098961 L17.7913273,0.430693622 C17.7913273,0.194795041 17.5944322,0.00178711047 17.3537825,0.00178711047 L15.3119067,0.00178711047 C15.071257,0.00178711047 14.8743619,0.194795041 14.8743619,0.430693622 L14.8743619,3.02557802 L11.6110068,0.391377192 C10.9656282,-0.130459064 10.0321992,-0.130459064 9.38682064,0.391377192 L0.158271228,7.84362783 C-0.0276853192,7.99374511 -0.0532087669,8.2653859 0.0999319189,8.44767117 L1.02971465,9.55567966 C1.18285534,9.73796493 1.45996706,9.76298447 1.6459236,9.6128672 L10.221802,2.68960125 C10.3822351,2.5609293 10.6155923,2.5609293 10.7796716,2.68960125 L19.35555,9.6128672 C19.5415066,9.76298447 19.8186183,9.73796493 19.971759,9.55567966 L20.9015417,8.44767117 C21.0546824,8.26181168 21.0255128,7.99374511 20.8395562,7.84362783 L20.8395562,7.84362783 Z" id="home"></path>
                    </g>
                </g>
            </g>
        </g>
    </g>
</svg>
