<?xml version="1.0" encoding="UTF-8"?>
<svg width="12px" height="16px" viewBox="0 0 12 16" version="1.1" xmlns="http://www.w3.org/2000/svg" xmlns:xlink="http://www.w3.org/1999/xlink">
    <!-- Generator: sketchtool 64 (101010) - https://sketch.com -->
    <title>0AD0FDDC-D9E8-4B5B-8220-6C872D58A008</title>
    <desc>Created with sketchtool.</desc>
    <g id="Home-Dashboard-(Desktop)" stroke="none" stroke-width="1" fill="none" fill-rule="evenodd">
        <g id="Dashboard-A" transform="translate(-669.000000, -103.000000)" fill="#575757" fill-rule="nonzero">
            <g id="Top-Section" transform="translate(40.000000, 95.000000)">
                <g id="Main-Navigation-Links" transform="translate(118.000000, 8.000000)">
                    <g id="Locations" transform="translate(511.000000, 0.000000)">
                        <path d="M5.38337503,15.6771837 C0.842812504,9.09471653 0,8.41915419 0,6 C0,2.68628059 2.68628126,0 6,0 C9.3137188,0 12,2.68628059 12,6 C12,8.41915419 11.1571876,9.09471653 6.61662503,15.6771837 C6.31865628,16.1076211 5.68131253,16.1075898 5.38337503,15.6771837 Z M6.00000002,8.49999915 C7.38071879,8.49999915 8.50000002,7.38071695 8.50000002,5.99999915 C8.50000002,4.61928012 7.38071879,3.49999915 6.00000002,3.49999915 C4.61928127,3.49999915 3.50000002,4.61928012 3.50000002,5.99999915 C3.50000002,7.38071695 4.61928127,8.49999915 6.00000002,8.49999915 Z" id="Mask"></path>
                    </g>
                </g>
            </g>
        </g>
    </g>
</svg>