<?xml version="1.0" encoding="UTF-8"?>
<svg width="20px" height="16px" viewBox="0 0 20 16" version="1.1" xmlns="http://www.w3.org/2000/svg" xmlns:xlink="http://www.w3.org/1999/xlink">
    <!-- Generator: sketchtool 64 (101010) - https://sketch.com -->
    <title>27A1BA37-6FE0-4DE9-859F-9DB55776C2E6</title>
    <desc>Created with sketchtool.</desc>
    <g id="Home-Dashboard-(Desktop)" stroke="none" stroke-width="1" fill="none" fill-rule="evenodd">
        <g id="Dashboard-A" transform="translate(-273.000000, -103.000000)" fill="#575757" fill-rule="nonzero">
            <g id="Top-Section" transform="translate(40.000000, 95.000000)">
                <g id="Main-Navigation-Links" transform="translate(118.000000, 8.000000)">
                    <g id="Promotions" transform="translate(115.000000, 0.000000)">
                        <path d="M15.5606623,7.06065453 L8.93934724,0.439343643 C8.65804417,0.158038667 8.27651467,0 7.87869058,0 L1.5,0 C0.671562762,0 0,0.671562336 0,1.5 L0,7.87868558 C0,8.27650942 0.158038767,8.65803867 0.439343922,8.93934157 L7.06065901,15.5606525 C7.64640924,16.1464336 8.59615961,16.1464648 9.18197234,15.5606525 L15.5606623,9.18196651 C16.1464438,8.5961854 16.1464438,7.64643563 15.5606623,7.06065453 Z M3.50000078,4.99999951 C2.67156354,4.99999951 2.00000078,4.32843644 2.00000078,3.49999951 C2.00000078,2.67156185 2.67156354,1.99999951 3.50000078,1.99999951 C4.32843919,1.99999951 5.00000078,2.67156185 5.00000078,3.49999951 C5.00000078,4.32843644 4.32843919,4.99999951 3.50000078,4.99999951 Z M19.5606639,9.18196651 L13.1819739,15.5606525 C12.5961924,16.1464336 11.646442,16.1464336 11.0606606,15.5606525 L11.0494106,15.5494025 L16.4887564,10.11006 C17.0199754,9.57884141 17.3125068,8.87256033 17.3125068,8.12131052 C17.3125068,7.3700607 17.0199441,6.66377962 16.4887564,6.132561 L10.3561603,5.32907052e-15 L11.8786921,5.32907052e-15 C12.2765162,5.32907052e-15 12.6580457,0.158038667 12.9393488,0.439343643 L19.5606639,7.06065453 C20.1464454,7.64643563 20.1464454,8.5961854 19.5606639,9.18196651 L19.5606639,9.18196651 Z" id="tags"></path>
                    </g>
                </g>
            </g>
        </g>
    </g>
</svg>