<?xml version="1.0" encoding="UTF-8"?>
<svg width="24px" height="24px" viewBox="0 0 24 24" version="1.1" xmlns="http://www.w3.org/2000/svg" xmlns:xlink="http://www.w3.org/1999/xlink">
    <!-- Generator: sketchtool 64 (101010) - https://sketch.com -->
    <title>01B1DAB0-5B6D-43B9-AD36-AC72AF67526A</title>
    <desc>Created with sketchtool.</desc>
    <g id="Promotions-(Desktop)" stroke="none" stroke-width="1" fill="none" fill-rule="evenodd">
        <g id="Promotions-List" transform="translate(-619.000000, -175.000000)" fill="#575757" fill-rule="nonzero">
            <g id="Filters-&amp;-Search" transform="translate(126.000000, 167.000000)">
                <g id="Filter" transform="translate(448.000000, 8.000000)">
                    <path d="M57.0061888,24 C63.5662713,24 69,18.5662713 69,11.9938112 C69,5.43372873 63.5538938,0 56.9938112,0 C50.4337287,0 45,5.43372873 45,11.9938112 C45,18.5662713 50.4461062,24 57.0061888,24 Z M57.0061888,21.85869 C51.5353275,21.85869 47.1536875,17.47705 47.1536875,11.9938112 C47.1536875,6.52294997 51.52295,2.12893244 56.9938112,2.12893244 C62.4646725,2.12893244 66.85869,6.52294997 66.8710936,11.9938112 C66.8834451,17.47705 62.47705,21.85869 57.0061888,21.85869 Z M63.3063435,9.7782362 C63.8509541,9.7782362 64.2222795,9.44404332 64.2222795,8.92418773 C64.2222795,8.40433213 63.8509541,8.05776173 63.3063435,8.05776173 L50.7184116,8.05776173 C50.1738009,8.05776173 49.790098,8.40433213 49.790098,8.92418773 C49.790098,9.44404332 50.1738009,9.7782362 50.7184116,9.7782362 L63.3063435,9.7782362 Z M61.610624,13.6400206 C62.1552347,13.6400206 62.5389376,13.3058277 62.5389376,12.7859722 C62.5389376,12.2661166 62.1552347,11.9319237 61.610624,11.9319237 L52.414131,11.9319237 C51.8695204,11.9319237 51.4858174,12.2661166 51.4858174,12.7859722 C51.4858174,13.3058277 51.8695204,13.6400206 52.414131,13.6400206 L61.610624,13.6400206 Z M59.853017,17.5141826 C60.3852501,17.5141826 60.7689531,17.1676122 60.7689531,16.6601341 C60.7689531,16.1402785 60.3852501,15.7937081 59.853017,15.7937081 L54.171738,15.7937081 C53.6395049,15.7937081 53.255802,16.1402785 53.255802,16.6601341 C53.255802,17.1676122 53.6395049,17.5141826 54.171738,17.5141826 L59.853017,17.5141826 Z" id="filters_icon"></path>
                </g>
            </g>
        </g>
    </g>
</svg>