<?xml version="1.0" encoding="UTF-8"?>
<svg width="136px" height="56px" viewBox="0 0 136 56" version="1.1" xmlns="http://www.w3.org/2000/svg" xmlns:xlink="http://www.w3.org/1999/xlink">
    <!-- Generator: sketchtool 64 (101010) - https://sketch.com -->
    <title>1B6DA518-1A88-4DA4-B58E-8456271AD0A8</title>
    <desc>Created with sketchtool.</desc>
    <g id="Login-(Desktop)" stroke="none" stroke-width="1" fill="none" fill-rule="evenodd">
        <g id="Stand-Alone-Login-page---Filled-login" transform="translate(-652.000000, -203.000000)" fill="#00D97E">
            <g id="Login-Form" transform="translate(480.000000, 171.000000)">
                <g id="Logo-Placeholder" transform="translate(172.000000, 32.000000)">
                    <path d="M67.4050426,16.0166856 C69.1927223,16.0166856 70.6371404,17.4588982 70.6371404,19.236273 L70.6371404,19.236273 L70.6371404,52.3699237 C70.6371404,54.1472984 69.1893237,55.5861256 67.4050426,55.5861256 C65.6207615,55.5861256 64.1729448,54.1472984 64.1729448,52.3699237 L64.1729448,52.3699237 L64.1729448,19.236273 C64.1729448,17.4588982 65.6207615,16.0166856 67.4050426,16.0166856 Z M50.2215658,16.0708532 C52.0092455,16.0708532 53.4638595,17.5164513 53.4672581,19.293826 C53.4672581,21.0779717 52.0126442,22.5235699 50.2249644,22.5235699 L50.2249644,22.5235699 L17.2072672,22.5134134 C11.2766566,22.5201844 6.48458737,27.3004761 6.47099285,33.2081312 L6.47099285,33.2081312 L6.45060106,52.3733092 C6.45060106,54.1472984 5.00618302,55.5827401 3.22530053,55.5827401 C1.44441805,55.5827401 -4.74287276e-13,54.1472984 -4.74287276e-13,52.3733092 L-4.74287276e-13,52.3733092 L-4.74287276e-13,33.2081312 C0.0033986307,23.7423411 7.70129716,16.0708532 17.2038686,16.0708532 L17.2038686,16.0708532 Z M130.643364,16.0742386 C132.431044,16.0742386 133.882259,17.5164513 133.882259,19.2972115 C133.882259,21.0779717 132.431044,22.5235699 130.643364,22.5235699 L130.643364,22.5235699 L95.6272719,22.5167989 C92.8301988,22.5201844 90.5667108,24.7749112 90.5633122,27.5611577 C90.5701094,30.3440187 92.8301988,32.5987456 95.6272719,32.602131 L95.6272719,32.602131 L124.413674,32.6055165 C130.782708,32.6122875 135.945228,37.7514396 135.945228,44.0924356 C135.945228,50.436817 130.779309,55.5725837 124.413674,55.5759692 L124.413674,55.5759692 L88.843605,55.5590418 C87.0627225,55.5590418 85.6149059,54.1202146 85.6149059,52.3394544 C85.6149059,50.5654651 87.0627225,49.1232525 88.843605,49.1232525 L88.843605,49.1232525 L124.413674,49.1367944 C127.210747,49.1334089 129.474235,46.8786821 129.477634,44.0958211 C129.474235,41.31296 127.210747,39.0582332 124.413674,39.0548477 L124.413674,39.0548477 L95.6272719,39.0480768 C89.258238,39.0446913 84.0991166,33.9089247 84.0991166,27.5611577 C84.0991166,21.2167762 89.258238,16.0776241 95.6272719,16.0742386 L95.6272719,16.0742386 Z M41.035067,32.5344215 C42.8363413,32.5344215 44.2943539,33.9867906 44.2943539,35.7777072 C44.2943539,37.5720094 42.8363413,39.0243784 41.035067,39.0243784 L41.035067,39.0243784 L14.3999983,39.0243784 C12.598724,39.0243784 11.1407114,37.5686239 11.1407114,35.7777072 C11.1407114,33.9867906 12.598724,32.5344215 14.3999983,32.5344215 L14.3999983,32.5344215 Z" id="Combined-Shape"></path>
                    <path d="M58.198152,4.21830273 C58.198152,6.54412454 56.3051147,8.43321998 53.9634582,8.43321998 C51.6252003,8.43321998 49.732163,6.54412454 49.732163,4.21830273 C49.732163,1.88909544 51.6252003,3.88578059e-15 53.9634582,3.88578059e-15 C56.3017161,3.88578059e-15 58.198152,1.88909544 58.198152,4.21830273 Z" id="Path"></path>
                    <path d="M44.7769594,4.21830273 C44.7769594,6.54412454 42.8839221,8.43321998 40.5456642,8.43321998 C38.2074063,8.43321998 36.3109704,6.54412454 36.3109704,4.21830273 C36.3109704,1.88909544 38.2074063,3.88578059e-15 40.5456642,3.88578059e-15 C42.8805235,3.88578059e-15 44.7769594,1.88909544 44.7769594,4.21830273 Z" id="Path"></path>
                    <path d="M31.3523682,4.21830273 C31.3523682,6.54412454 29.4593309,8.43321998 27.121073,8.43321998 C24.782815,8.43321998 22.8863791,6.54412454 22.8863791,4.21830273 C22.8863791,1.88909544 24.782815,3.88578059e-15 27.121073,3.88578059e-15 C29.4593309,3.88578059e-15 31.3523682,1.88909544 31.3523682,4.21830273 Z" id="Path"></path>
                    <path d="M17.9345742,4.21830273 C17.9345742,6.54412454 16.0381383,8.43321998 13.6998803,8.43321998 C11.3616224,8.43321998 9.46518649,6.54412454 9.46518649,4.21830273 C9.46518649,1.88909544 11.3582238,3.88578059e-15 13.6998803,3.88578059e-15 C16.0415369,3.88578059e-15 17.9345742,1.88909544 17.9345742,4.21830273 Z" id="Path"></path>
                    <path d="M71.6193447,4.21830273 C71.6193447,6.54412454 69.7263074,8.43321998 67.3880494,8.43321998 C65.0497915,8.43321998 63.1533556,6.54412454 63.1533556,4.21830273 C63.1533556,1.88909544 65.0497915,3.88578059e-15 67.3880494,3.88578059e-15 C69.7263074,3.88578059e-15 71.6193447,1.88909544 71.6193447,4.21830273 Z" id="Path"></path>
                </g>
            </g>
        </g>
    </g>
</svg>