<?xml version="1.0" encoding="UTF-8"?>
<svg width="23px" height="23px" viewBox="0 0 23 23" version="1.1" xmlns="http://www.w3.org/2000/svg" xmlns:xlink="http://www.w3.org/1999/xlink">
    <!-- Generator: sketchtool 64 (101010) - https://sketch.com -->
    <title>15FABC2D-D3A8-4550-AAA3-E9A067C549D1</title>
    <desc>Created with sketchtool.</desc>
    <g id="Home-Dashboard-(Desktop)" stroke="none" stroke-width="1" fill="none" fill-rule="evenodd">
        <g id="Dashboard-A" transform="translate(-1297.000000, -100.000000)" fill="#202020">
            <g id="Top-Section" transform="translate(40.000000, 95.000000)">
                <g id="New-Coupons-Available" transform="translate(1257.000000, 5.000000)">
                    <path d="M20.3301592,5.03927997 C20.7075203,5.03927997 21.0162703,5.7444139 21.0162703,6.60624426 C21.041316,6.96325756 21.0465308,7.23833149 21.0319147,7.43146604 C21.0081776,7.74512308 21.0309016,8.15725688 20.8431399,8.40088941 C20.3013651,9.10387626 19.7274197,8.7488246 19.2932872,8.84192279 C18.3310844,9.04826376 17.8936158,9.56394134 17.8358371,9.73430691 C17.7800768,9.89872085 17.5921129,10.262324 17.5560324,11.033862 C17.5530033,11.0986349 17.5507315,11.1746712 17.549217,11.2619709 L17.5475131,11.3477124 C17.54562,11.6504371 17.5484597,11.8827656 17.5560324,12.0446979 C17.5921129,12.816236 17.7800768,13.1798391 17.8358371,13.344253 C17.8936158,13.5146186 18.3310844,14.0302962 19.2932872,14.2366371 C19.7274197,14.3297353 20.3380065,14.0628562 20.8797814,14.7658431 C21.0369874,14.9698277 21.0281726,15.1385077 21.065768,15.3804443 C21.0982884,15.5897221 21.0817892,15.9536792 21.0162703,16.4723157 C21.0162703,17.334146 20.7075203,18.03928 20.3301592,18.03928 L2.70238141,18.03928 C2.3250203,18.03928 2.0162703,17.334146 2.0162703,16.4723157 C1.98236114,15.919379 1.99100886,15.5302749 2.04221345,15.3050035 C2.09470843,15.0740551 2.09645368,14.8864117 2.24308967,14.6961423 C2.78486455,13.9931555 3.30512085,14.3297353 3.73925342,14.2366371 C4.70145618,14.0302962 5.13892476,13.5146186 5.19670351,13.344253 C5.25246379,13.1798391 5.44042767,12.816236 5.4765082,12.0446979 C5.48256633,11.9151521 5.4855954,11.7405527 5.4855954,11.5208997 L5.48502745,11.4013681 C5.48389155,11.2535234 5.4810518,11.1310214 5.4765082,11.033862 C5.44042767,10.262324 5.25246379,9.89872085 5.19670351,9.73430691 C5.13892476,9.56394134 4.70145618,9.04826376 3.73925342,8.84192279 C3.30512085,8.7488246 2.60437623,9.01894058 2.06260135,8.31595374 C1.90916675,8.11686273 1.90769294,7.822359 1.86383989,7.5951829 C1.82425555,7.39012038 1.8329361,7.08390601 1.88988154,6.67653978 C1.88988154,5.81470943 2.3250203,5.03927997 2.70238141,5.03927997 L20.3301592,5.03927997 Z M15.0162703,12.6606003 L8.0162703,12.6606003 C7.7412703,12.6606003 7.5162703,12.8534575 7.5162703,13.0891717 L7.5162703,13.0891717 L7.5162703,14.2320289 C7.5162703,14.4677432 7.7412703,14.6606003 8.0162703,14.6606003 L8.0162703,14.6606003 L15.0162703,14.6606003 C15.2912703,14.6606003 15.5162703,14.4677432 15.5162703,14.2320289 L15.5162703,14.2320289 L15.5162703,13.0891717 C15.5162703,12.8534575 15.2912703,12.6606003 15.0162703,12.6606003 L15.0162703,12.6606003 Z M15.0162703,8.41795963 L8.0162703,8.41795963 C7.7412703,8.41795963 7.5162703,8.61081677 7.5162703,8.84653106 L7.5162703,8.84653106 L7.5162703,9.9893882 C7.5162703,10.2251025 7.7412703,10.4179596 8.0162703,10.4179596 L8.0162703,10.4179596 L15.0162703,10.4179596 C15.2912703,10.4179596 15.5162703,10.2251025 15.5162703,9.9893882 L15.5162703,9.9893882 L15.5162703,8.84653106 C15.5162703,8.61081677 15.2912703,8.41795963 15.0162703,8.41795963 L15.0162703,8.41795963 Z" id="coupons_icon" transform="translate(11.460720, 11.539280) scale(1, -1) rotate(-45.000000) translate(-11.460720, -11.539280) "></path>
                </g>
            </g>
        </g>
    </g>
</svg>